<?xml version="1.0" standalone="no"?>
<!DOCTYPE svg PUBLIC "-//W3C//DTD SVG 20010904//EN"
 "http://www.w3.org/TR/2001/REC-SVG-20010904/DTD/svg10.dtd">
<svg version="1.0" xmlns="http://www.w3.org/2000/svg"
 width="300.000000pt" height="300.000000pt" viewBox="0 0 300.000000 300.000000"
 preserveAspectRatio="xMidYMid meet">
<metadata>
Created by potrace 1.11, written by Peter Selinger 2001-2013
</metadata>
<g transform="translate(0.000000,300.000000) scale(0.100000,-0.100000)"
fill="#000000" stroke="none">
<path d="M0 1500 l0 -1500 1500 0 1500 0 0 1500 0 1500 -1500 0 -1500 0 0
-1500z m1456 1089 c140 -26 296 -135 367 -257 64 -111 72 -143 72 -299 l0
-142 40 6 c64 10 173 48 276 97 198 94 284 95 378 6 77 -74 116 -221 108 -410
-15 -359 -166 -685 -438 -945 -83 -79 -146 -127 -186 -142 -9 -4 21 38 66 93
216 260 351 603 351 891 0 146 -21 165 -132 123 -103 -38 -393 -97 -566 -115
-176 -18 -361 -96 -465 -197 -35 -35 -78 -83 -94 -108 -36 -54 -53 -99 -21
-55 47 66 151 153 224 189 137 67 243 87 564 106 96 6 218 19 270 29 52 11 97
17 99 15 10 -10 -20 -187 -44 -259 -32 -98 -109 -260 -159 -338 -136 -212
-354 -400 -559 -481 -150 -60 -208 -70 -407 -70 -238 0 -347 21 -496 95 -233
114 -354 292 -371 544 -9 141 31 273 122 400 82 115 219 221 326 253 l56 16
-78 38 c-69 34 -150 88 -227 153 -13 11 -48 51 -78 89 -47 59 -54 74 -54 112
0 73 36 97 211 136 90 20 138 58 179 143 24 48 160 179 225 215 126 72 289 97
441 69z"/>
<path d="M1189 2127 c-8 -7 -23 -24 -33 -39 -31 -48 2 -116 63 -131 58 -14
121 50 107 109 -15 59 -94 94 -137 61z"/>
</g>
</svg>
